C:\Users\r0593348\3dpredictsim\Results\Batchsim_tmt_linear\Pog_s1_tmt_aCst_d00_k250_ig24_act_GRF.mot
nRows=17
nColumns=19

name C:\Users\r0593348\3dpredictsim\Results\Batchsim_tmt_linear\Pog_s1_tmt_aCst_d00_k250_ig24_act_GRF.mot
datacolumns 19
datarows 17
range 0.6110775189 0.8066223250
endheader
time 	ground_force_vx	ground_force_vy	ground_force_vz	ground_force_px	ground_force_py	ground_force_pz	1_ground_force_vx	1_ground_force_vy	1_ground_force_vz	1_ground_force_px	1_ground_force_py	1_ground_force_pz	ground_torque_x	ground_torque_y	ground_torque_z	1_ground_torque_x	1_ground_torque_y	1_ground_torque_z
        0.6110775189	       70.1726555913	      384.9766484858	        2.9904511181	        0.4057717846	        0.0000000000	        0.0265264974	      -21.7232021560	       21.3217231411	      -12.1575928436	        0.9452801570	        0.0000000000	       -0.0528765306	        0.0000000000	        0.0000000000	        0.0000000000	        0.0000000000	        0.0000000000	        0.0000000000	
        0.6232990693	       44.4003213503	      284.5867136413	       14.1162546449	        0.4164910924	        0.0000000000	        0.0224828661	      -57.7311200880	       95.5993974846	      -72.7702550510	        0.9501824948	        0.0000000000	       -0.0506774982	        0.0000000000	        0.0000000000	        0.0000000000	        0.0000000000	        0.0000000000	        0.0000000000	
        0.6355206197	       30.4088736034	      224.0478486543	       19.4020120642	        0.4262051632	        0.0000000000	        0.0182884915	      -29.5125146632	      269.0928105491	      -35.9427106966	        0.9537761997	        0.0000000000	       -0.0476523258	        0.0000000000	        0.0000000000	        0.0000000000	        0.0000000000	        0.0000000000	        0.0000000000	
        0.6477421700	       25.4520942652	      194.9599549513	       19.7979029325	        0.4261572738	        0.0000000000	        0.0183073347	      -37.4843487979	      483.7282037298	        0.9421489109	        0.9575706040	        0.0000000000	       -0.0472658042	        0.0000000000	        0.0000000000	        0.0000000000	        0.0000000000	        0.0000000000	        0.0000000000	
        0.6599637204	       14.8014640687	      152.1731749669	       20.9286134145	        0.4260175301	        0.0000000000	        0.0184510227	      -86.4719642869	      742.5194405709	       16.3291017782	        0.9686445547	        0.0000000000	       -0.0495345148	        0.0000000000	        0.0000000000	        0.0000000000	        0.0000000000	        0.0000000000	        0.0000000000	
        0.6721852708	       -1.1379633615	       86.7015224280	       22.7114658803	        0.4254074612	        0.0000000000	        0.0192748817	     -123.4108039349	      904.9165862603	       17.4515522115	        0.9763657626	        0.0000000000	       -0.0511843616	        0.0000000000	        0.0000000000	        0.0000000000	        0.0000000000	        0.0000000000	        0.0000000000	
        0.6844068212	      -10.7585353762	       14.0132194307	        6.0958284289	        0.4204508235	        0.0000000000	        0.0197420976	     -132.9743871792	      937.2580161572	       17.6436626479	        0.9813675260	        0.0000000000	       -0.0520777863	        0.0000000000	        0.0000000000	        0.0000000000	        0.0000000000	        0.0000000000	        0.0000000000	
        0.6966283716	        0.9134779111	       -0.7389082587	       -0.0568625396	        0.0000000000	        0.0000000000	        0.0000000000	     -116.5478590871	      897.9310283867	       17.8956645593	        0.9855227326	        0.0000000000	       -0.0525057725	        0.0000000000	        0.0000000000	        0.0000000000	        0.0000000000	        0.0000000000	        0.0000000000	
        0.7088499219	      -17.0929463620	       12.0191059521	        0.1798122627	        0.4424422119	        0.0000000000	        0.0155305141	     -101.6873383548	      828.8083819778	       19.0662170359	        0.9900784638	        0.0000000000	       -0.0525645322	        0.0000000000	        0.0000000000	        0.0000000000	        0.0000000000	        0.0000000000	        0.0000000000	
        0.7210714723	      -18.1894728648	       11.2153585692	       -0.4788498426	        0.4624871045	        0.0000000000	        0.0158188807	      -92.3598955542	      774.5658626067	       19.2400352286	        0.9958921641	        0.0000000000	       -0.0523042570	        0.0000000000	        0.0000000000	        0.0000000000	        0.0000000000	        0.0000000000	        0.0000000000	
        0.7332930227	      -15.7063350844	        8.7746522564	       -0.9434951177	        0.0000000000	        0.0000000000	        0.0000000000	      -85.3509187956	      740.7328536935	       20.1383487783	        1.0027963428	        0.0000000000	       -0.0517610317	        0.0000000000	        0.0000000000	        0.0000000000	        0.0000000000	        0.0000000000	        0.0000000000	
        0.7455145731	      -11.1833702346	        5.7929655723	       -0.9157552100	        0.0000000000	        0.0000000000	        0.0000000000	      -77.7689797934	      712.6943806078	       20.0943129160	        1.0095406413	        0.0000000000	       -0.0511238019	        0.0000000000	        0.0000000000	        0.0000000000	        0.0000000000	        0.0000000000	        0.0000000000	
        0.7577361235	       -7.6252145692	        3.7901869982	       -0.6537581239	        0.0000000000	        0.0000000000	        0.0000000000	      -69.6447971747	      687.2957587527	       19.8972811586	        1.0161418731	        0.0000000000	       -0.0505367740	        0.0000000000	        0.0000000000	        0.0000000000	        0.0000000000	        0.0000000000	        0.0000000000	
        0.7699576738	       -5.5569122166	        2.6789306835	       -0.4823571190	        0.0000000000	        0.0000000000	        0.0000000000	      -61.8155738409	      665.6201713526	       20.2551901438	        1.0229109373	        0.0000000000	       -0.0499659955	        0.0000000000	        0.0000000000	        0.0000000000	        0.0000000000	        0.0000000000	        0.0000000000	
        0.7821792242	       -4.2079902239	        1.9801273479	       -0.3691527453	        0.0000000000	        0.0000000000	        0.0000000000	      -54.9843174193	      648.1413819413	       20.8987544348	        1.0300365553	        0.0000000000	       -0.0493577562	        0.0000000000	        0.0000000000	        0.0000000000	        0.0000000000	        0.0000000000	        0.0000000000	
        0.7944007746	       -3.0879350026	        1.4245976785	       -0.2738836157	        0.0000000000	        0.0000000000	        0.0000000000	      -49.2614277189	      634.1856527862	       21.1351971598	        1.0375706335	        0.0000000000	       -0.0486709437	        0.0000000000	        0.0000000000	        0.0000000000	        0.0000000000	        0.0000000000	        0.0000000000	
        0.8066223250	       -2.2096569828	        1.0031951079	       -0.1969760538	        0.0000000000	        0.0000000000	        0.0000000000	      -44.5347261531	      622.8617569903	       20.8477902871	        1.0454105219	        0.0000000000	       -0.0478902391	        0.0000000000	        0.0000000000	        0.0000000000	        0.0000000000	        0.0000000000	        0.0000000000	
